<?xml version="1.0" standalone="no"?>
<!DOCTYPE svg PUBLIC "-//W3C//DTD SVG 20010904//EN"
 "http://www.w3.org/TR/2001/REC-SVG-20010904/DTD/svg10.dtd">
<svg version="1.0" xmlns="http://www.w3.org/2000/svg"
 width="656.000000pt" height="656.000000pt" viewBox="0 0 656.000000 656.000000"
 preserveAspectRatio="xMidYMid meet">
<metadata>
Created by potrace 1.11, written by Peter Selinger 2001-2013
</metadata>
<g transform="translate(0.000000,656.000000) scale(0.100000,-0.100000)"
fill="#000000" stroke="none">
<path d="M3088 5632 l-28 -3 0 -255 0 -254 755 0 755 0 0 255 0 255 -22 1
c-91 2 -1439 3 -1460 1z"/>
<path d="M669 5618 c0 -2 -2 -108 -2 -236 -2 -199 0 -235 13 -241 8 -4 134 -7
280 -6 l265 0 3 243 2 242 -280 0 c-154 0 -280 -1 -281 -2z"/>
<path d="M1421 5051 c-5 -3 -9 -113 -9 -243 l1 -238 718 0 719 0 0 243 0 243
-710 0 c-391 0 -714 -2 -719 -5z"/>
<path d="M660 3365 l0 -1661 280 0 c275 0 280 0 281 21 1 24 1 3264 0 3285 -1
13 -39 15 -281 15 l-280 0 0 -1660z"/>
<path d="M3060 3365 l0 -1661 753 0 752 0 5 1176 5 1175 29 -102 28 -102 172
60 c94 33 220 76 279 96 60 19 110 41 113 47 3 9 -80 323 -88 331 -3 3 -219
-69 -430 -144 -49 -17 -92 -31 -98 -31 -6 0 -11 147 -12 407 l-3 408 -752 0
-753 0 0 -1660z"/>
<path d="M1420 4450 c-4 -3 -7 -621 -6 -1375 l1 -1370 718 -1 717 0 0 1373 c0
755 -3 1374 -7 1374 -26 4 -1416 3 -1423 -1z"/>
<path d="M5145 3893 c-38 -14 -159 -56 -268 -93 -110 -38 -201 -70 -203 -73
-4 -4 61 -240 191 -697 31 -107 57 -202 59 -210 2 -8 37 -130 76 -270 40 -140
126 -444 191 -675 66 -231 126 -442 134 -470 8 -27 22 -79 32 -115 9 -36 17
-66 18 -67 2 -3 93 28 360 120 235 81 216 70 204 109 -6 18 -12 42 -14 52 -3
10 -9 33 -14 50 -6 17 -17 56 -25 86 -8 30 -28 102 -45 160 -52 182 -152 534
-156 550 -6 23 -44 158 -65 230 -10 36 -67 236 -125 445 -59 209 -116 409
-126 445 -11 36 -43 151 -73 255 -35 126 -58 191 -67 192 -8 1 -45 -10 -84
-24z"/>
<path d="M664 1611 c-2 -2 -4 -76 -4 -163 l0 -158 283 0 282 0 -1 158 c-1 86
-2 159 -3 162 -1 6 -551 7 -557 1z"/>
<path d="M3064 1611 c-2 -2 -4 -76 -4 -163 l0 -158 758 0 757 0 -2 152 c-1 84
-2 158 -2 163 -1 10 -1497 15 -1507 6z"/>
<path d="M1419 1603 c-1 -5 -2 -77 -3 -161 l-1 -152 719 2 720 3 1 145 c0 80
-1 151 -3 158 -3 9 -156 12 -718 12 -393 0 -715 -3 -715 -7z"/>
<path d="M264 1201 c-2 -2 -4 -51 -4 -108 l0 -103 38 0 c50 -1 5854 -1 5915 0
l47 0 0 105 c0 77 -3 105 -12 106 -45 3 -5980 3 -5984 0z"/>
</g>
</svg>
